# xmcd CD database file
#
# Track frame offsets:
#	150
#	14072
#	27255
#	44970
#	65025
#	81675
#	97132
#	109112
#	127025
#	141530
#	161387
#	175862
#	192750
#	208830
#	225525
#	242692
#	258092
#	269600
#	286755
#	297462
#	313050
#	330995
#
# Disc length: 4590 seconds
#
# Revision: 3
# Processed by: cddbd v1.4PL0 Copyright (c) Steve Scherf et al.
# Submitted via: CDex 1.50
#
DISCID=5c11ec16
DTITLE=Vaya Con Dios - Very Best Of
DYEAR=1996
DGENRE=Rock
TTITLE0=Don't cry for Louie
TTITLE1=Nah Nah Nah
TTITLE2=What's a woman
TTITLE3=Don't break my heart
TTITLE4=Time flies
TTITLE5=Just a friend of mine
TTITLE6=Something's got a hold on me
TTITLE7=Forever Blue
TTITLE8=Far gone now
TTITLE9=Puerto rico
TTITLE10=Farewell song
TTITLE11=Sold my soul
TTITLE12=I don't want to know
TTITLE13=Heading for a fall
TTITLE14=Quand elle rit aux eclats
TTITLE15=Lord help me please
TTITLE16=Mothers and daughters
TTITLE17=Evening of love
TTITLE18=Johnny
TTITLE19=Sunny days
TTITLE20=Night owls
TTITLE21=So long ago
EXTD=YEAR: 1996
EXTT0=
EXTT1=
EXTT2=
EXTT3=
EXTT4=
EXTT5=
EXTT6=
EXTT7=
EXTT8=
EXTT9=
EXTT10=
EXTT11=
EXTT12=
EXTT13=
EXTT14=
EXTT15=
EXTT16=
EXTT17=
EXTT18=
EXTT19=
EXTT20=
EXTT21=
PLAYORDER=
